<?xml version="1.0" encoding="utf-8"?>
<!-- Generator: Adobe Illustrator 16.0.0, SVG Export Plug-In . SVG Version: 6.00 Build 0)  -->
<!DOCTYPE svg PUBLIC "-//W3C//DTD SVG 1.1//EN" "http://www.w3.org/Graphics/SVG/1.1/DTD/svg11.dtd">
<svg version="1.1" id="圖層_1" xmlns="http://www.w3.org/2000/svg" xmlns:xlink="http://www.w3.org/1999/xlink" x="0px" y="0px"
	 width="1920px" height="744.404px" viewBox="0 0 1920 744.404" enable-background="new 0 0 1920 744.404" xml:space="preserve">
<g>
	<rect fill="#FFFFFF" width="1920" height="744.404"/>
	<path fill="#FFFFFF" d="M0,0v744.404h1920V0H0z M1884.443,699.283H35.557V45.122h1848.886V699.283z"/>
	<rect fill="#FFFFFF" width="1920" height="744.404"/>
	<g>
		<polygon opacity="0.8776" fill="#A0E0A9" points="0,0 0,365.487 163.217,513.24 163.217,0 		"/>
		<polygon opacity="0.9008" fill="#A0E0A9" points="0,0 0,71.821 79.335,0 		"/>
		<polygon opacity="0.6899" fill="#A0E0A9" points="476.25,744.404 0,313.258 0,744.404 		"/>
		<polygon opacity="0.8549" fill="#A0E0A9" points="98.167,0 640.232,490.734 640.232,0 		"/>
		<polygon opacity="0.7054" fill="#F5FCD0" points="862.845,744.404 862.845,334.622 410.191,744.404 		"/>
		<polygon opacity="0.8305" fill="#F5FCD0" points="1137.789,744.404 546.583,209.183 546.583,744.404 		"/>
		<polygon opacity="0.7539" fill="#A0E0A9" points="1141.181,744.404 1141.181,48.042 722.017,427.504 1072.083,744.404 		"/>
		<polygon opacity="0.8645" fill="#00ADA7" points="638.987,744.404 1315.356,132.107 1169.425,0 547.852,0 547.852,744.404 		"/>
		<polygon opacity="0.5374" fill="#F5FCD0" points="1349.803,744.404 1699.854,427.504 1227.635,0 815.955,0 815.955,744.404 		"/>
		<polygon opacity="0.5168" fill="#00ADA7" points="1396.052,0 1626.399,208.539 1626.399,0 		"/>
	</g>
</g>
</svg>
